<?xml version="1.0" encoding="UTF-8"?><svg version="1.1" width="30px" height="30px" viewBox="0 0 30.0 30.0" xmlns="http://www.w3.org/2000/svg" xmlns:xlink="http://www.w3.org/1999/xlink"><defs><clipPath id="i0"><path d="M14,9.59930314 C17.0375661,9.59930314 19.5,12.0874767 19.5,15.1567944 C19.5,18.2261121 17.0375661,20.7142857 14,20.7142857 C10.9624339,20.7142857 8.5,18.2261121 8.5,15.1567944 C8.5,12.0874767 10.9624339,9.59930314 14,9.59930314 Z M10,0 C15.5228475,0 20,4.52395201 20,10.1045296 C20,10.4924142 19.9783704,10.8751941 19.9362634,11.2517051 C19.488304,10.5714228 18.9275795,9.97357962 18.2813261,9.48489208 C17.9206726,5.18356131 14.3506629,1.80625 10,1.80625 C5.40913302,1.80625 1.6875,5.5667851 1.6875,10.2056402 C1.6875,11.5075145 1.98053775,12.7661926 2.5364901,13.9081471 C2.58817672,14.0143141 2.59802093,14.1363565 2.5640308,14.2495795 L2.24897209,17.182517 L5.17083049,17.182517 C5.25143795,17.1726968 5.33268472,17.1845713 5.40656757,17.2162633 L5.47769936,17.2544916 C6.1549647,17.6990945 6.8893334,18.0400331 7.66106575,18.2681341 C7.98889154,18.9657679 8.42615248,19.6021053 8.95018862,20.1536188 C7.49459011,20.000429 6.10530752,19.5286754 4.86333321,18.7758293 L4.715,18.682 L1.09206659,18.6822648 C0.761206095,18.7225727 0.493180631,18.4335622 0.536331529,18.1142887 L0.553745811,18.034013 L0.935487487,14.3747038 L0.861232913,14.2127983 C0.347775279,13.0484116 0.0561142416,11.7914838 0.00732841351,10.4947058 L0,10.1045296 C0,4.52395201 4.4771525,0 10,0 Z M14,12.1254355 C13.6410149,12.1254355 13.35,12.4164505 13.35,12.7754355 L13.35,14.4994355 L11.6567944,14.5 C11.2940569,14.5 11,14.7940569 11,15.1567944 C11,15.519532 11.2940569,15.8135889 11.6567944,15.8135889 L13.35,15.8134355 L13.35,17.5381533 C13.35,17.8971384 13.6410149,18.1881533 14,18.1881533 C14.3589851,18.1881533 14.65,17.8971384 14.65,17.5381533 L14.65,15.8134355 L16.3432056,15.8135889 C16.7059431,15.8135889 17,15.519532 17,15.1567944 C17,14.7940569 16.7059431,14.5 16.3432056,14.5 L14.65,14.4994355 L14.65,12.7754355 C14.65,12.4164505 14.3589851,12.1254355 14,12.1254355 Z"></path></clipPath></defs><g transform="translate(-705.0 -295.0)"><g transform="translate(663.75 273.3999999999999)"><g transform="translate(41.25 21.59999999999991)"><g transform="translate(5.0 4.6874999999999964)"><g clip-path="url(#i0)"><polygon points="0,0 20,0 20,20.7142857 0,20.7142857 0,0" stroke="none" fill="#D8FF0D"></polygon></g></g></g></g></g></svg>